<svg width="353" height="134" viewBox="0 0 353 134" fill="none" xmlns="http://www.w3.org/2000/svg">
<path d="M139.648 61.432V103.864H148.16V61.432H139.648ZM125.248 73.016V79.864H140.928V73.016H125.248ZM108.992 112.888V119.672H149.504V112.888H108.992ZM108.992 100.472V116.856H117.568V100.472H108.992ZM101.824 65.464V90.36H110.272V65.464H101.824ZM101.824 88.568V95.672H106.752C115.456 95.672 124.416 95.224 133.696 93.304L132.608 86.328C123.648 88.056 115.136 88.568 106.752 88.568H101.824ZM188.191 65.528C179.295 65.528 172.895 73.72 172.895 86.648C172.895 99.704 179.295 107.896 188.191 107.896C197.023 107.896 203.487 99.704 203.487 86.648C203.487 73.72 197.023 65.528 188.191 65.528ZM188.191 73.272C192.543 73.272 195.359 77.944 195.359 86.648C195.359 95.48 192.543 100.216 188.191 100.216C183.903 100.216 181.023 95.48 181.023 86.648C181.023 77.944 183.903 73.272 188.191 73.272ZM213.215 61.368V120.824H221.663V61.368H213.215ZM200.991 82.744V89.592H216.799V82.744H200.991ZM262.49 62.328V118.008H270.234V62.328H262.49ZM267.098 84.344V91.192H277.53V84.344H267.098ZM231.77 99.448V106.424H234.458C237.53 106.424 240.666 106.36 244.89 105.4L244.314 98.488C240.346 99.384 237.274 99.448 234.458 99.448H231.77ZM231.77 68.472V103.224H239.514V75.256H244.25V68.472H231.77ZM246.49 99.448V106.424H249.242C252.826 106.424 256.282 106.36 260.698 105.336L260.122 98.424C255.898 99.384 252.57 99.448 249.242 99.448H246.49ZM246.49 68.472V103.16H254.106V75.256H259.418V68.472H246.49ZM274.522 61.432V120.696H282.522V61.432H274.522Z" fill="#3A3A3A"/>
<path d="M309.528 87.744H326.04C324.12 69.696 346.392 63.68 346.392 45.504C346.392 28.992 335.128 21.056 319.64 21.056C308.504 21.056 299.416 26.304 292.76 33.856L303.128 43.456C307.352 39.104 311.832 36.288 317.464 36.288C324.12 36.288 328.344 40.256 328.344 46.784C328.344 58.944 306.456 67.136 309.528 87.744ZM317.848 121.792C324.504 121.792 329.624 116.544 329.624 109.504C329.624 102.464 324.504 97.344 317.848 97.344C311.064 97.344 306.2 102.464 306.2 109.504C306.2 116.544 311.064 121.792 317.848 121.792Z" fill="#3A3A3A"/>
<path d="M16.968 31.176V52.872H18.96V31.176H16.968ZM2.568 33.288V46.728H4.536V33.288H2.568ZM2.568 45.552V47.28H4.344C7.776 47.28 11.208 47.016 14.976 46.248L14.736 44.544C11.064 45.312 7.632 45.552 4.344 45.552H2.568ZM35.4221 31.152V52.872H37.4381V31.152H35.4221ZM36.8861 39.96V41.616H40.8941V39.96H36.8861ZM29.8781 33.504V33.816C29.8781 39.552 26.8781 44.184 20.8781 47.232L21.9821 48.768C28.9901 45.24 31.8221 39.672 31.8221 33.504H29.8781ZM21.8861 33.504V35.136H30.9101V33.504H21.8861ZM57.9954 31.176V42.216H59.9874V31.176H57.9954ZM59.1234 35.832V37.488H63.1794V35.832H59.1234ZM46.2114 43.248V44.832H58.0434V47.064H46.2594V51.816H48.2274V48.576H59.9874V43.248H46.2114ZM46.2594 50.976V52.584H60.7794V50.976H46.2594ZM49.1394 31.944C45.9234 31.944 43.5474 33.936 43.5474 36.768C43.5474 39.624 45.9234 41.616 49.1394 41.616C52.4034 41.616 54.7554 39.624 54.7554 36.768C54.7554 33.936 52.4034 31.944 49.1394 31.944ZM49.1394 33.576C51.2754 33.576 52.8354 34.896 52.8354 36.768C52.8354 38.664 51.2754 39.984 49.1394 39.984C47.0514 39.984 45.4914 38.664 45.4914 36.768C45.4914 34.896 47.0514 33.576 49.1394 33.576ZM64.7856 33.336V34.992H78.7536V33.336H64.7856ZM62.7216 48.192V49.848H82.3296V48.192H62.7216ZM70.3296 40.44V49.008H72.3216V40.44H70.3296ZM78.0096 33.336V35.496C78.0096 38.088 78.0096 41.136 77.1936 45.288L79.1856 45.552C79.9776 41.16 79.9776 38.184 79.9776 35.496V33.336H78.0096ZM100.895 31.2V43.224H102.911V31.2H100.895ZM90.7669 31.968V34.08C90.7669 37.2 88.5109 40.08 85.2469 41.232L86.2549 42.792C89.9269 41.472 92.4229 38.088 92.4229 34.08V31.968H90.7669ZM91.1269 31.968V34.08C91.1269 37.968 93.6229 41.16 97.2709 42.408L98.2549 40.824C95.0389 39.768 92.7589 37.104 92.7589 34.08V31.968H91.1269ZM88.5589 44.52V46.152H103.031V44.52H88.5589ZM88.3429 50.976V52.584H103.271V50.976H88.3429ZM91.5349 45.216V51.912H93.4789V45.216H91.5349ZM98.1109 45.216V51.912H100.079V45.216H98.1109ZM104.661 42.576V44.208H124.269V42.576H104.661ZM107.205 50.76V52.392H122.109V50.76H107.205ZM107.205 46.104V51.264H109.197V46.104H107.205ZM114.477 31.896C109.821 31.896 106.845 33.528 106.845 36.24C106.845 38.928 109.821 40.56 114.477 40.56C119.109 40.56 122.109 38.928 122.109 36.24C122.109 33.528 119.109 31.896 114.477 31.896ZM114.477 33.528C117.885 33.528 120.069 34.536 120.069 36.24C120.069 37.944 117.885 38.952 114.477 38.952C111.069 38.952 108.885 37.944 108.885 36.24C108.885 34.536 111.069 33.528 114.477 33.528ZM166.783 55.56C168.967 54.672 170.287 52.872 170.287 50.544C170.287 48.96 169.591 47.976 168.439 47.976C167.551 47.976 166.807 48.552 166.807 49.512C166.807 50.496 167.551 51.048 168.391 51.048C168.823 51.048 169.207 50.928 169.495 50.568L168.439 48.984L168.679 50.952C168.679 52.416 167.767 53.616 166.279 54.288L166.783 55.56ZM182.981 36V37.656H189.533V36H182.981ZM182.981 42.864V44.52H189.533V42.864H182.981ZM178.997 32.832C175.829 32.832 173.597 35.784 173.597 40.392C173.597 45.024 175.829 47.976 178.997 47.976C182.141 47.976 184.397 45.024 184.397 40.392C184.397 35.784 182.141 32.832 178.997 32.832ZM178.997 34.632C181.085 34.632 182.525 36.888 182.525 40.392C182.525 43.92 181.085 46.224 178.997 46.224C176.909 46.224 175.469 43.92 175.469 40.392C175.469 36.888 176.909 34.632 178.997 34.632ZM189.101 31.152V52.896H191.069V31.152H189.101ZM208.564 31.176V52.872H210.556V31.176H208.564ZM202.204 33.504V33.84C202.204 39.6 199.3 44.208 193.036 47.232L194.092 48.84C201.34 45.288 204.172 39.792 204.172 33.504H202.204ZM194.02 33.504V35.136H203.068V33.504H194.02ZM229.841 31.152V52.896H231.857V31.152H229.841ZM231.377 39.72V41.4H235.409V39.72H231.377ZM216.089 45.816V47.496H217.793C221.873 47.496 224.729 47.376 228.065 46.752L227.849 45.072C224.609 45.672 221.801 45.816 217.793 45.816H216.089ZM216.089 33.264V46.56H218.057V34.896H226.169V33.264H216.089ZM242.982 44.52V45.696C242.982 47.784 241.35 50.112 238.614 51.096L239.622 52.584C242.742 51.384 244.518 48.528 244.518 45.696V44.52H242.982ZM243.414 44.52V45.696C243.414 48.576 244.83 51.552 247.95 52.776L248.79 51.264C246.198 50.208 244.902 47.88 244.902 45.696V44.52H243.414ZM250.998 44.52V45.696C250.998 47.568 249.678 50.088 247.11 51.264L247.95 52.776C251.046 51.456 252.486 48.24 252.486 45.696V44.52H250.998ZM251.406 44.52V45.696C251.406 48.696 253.134 51.432 256.302 52.584L257.31 51.096C254.55 50.16 252.942 47.928 252.942 45.696V44.52H251.406ZM253.35 31.2V43.584H255.366V31.2H253.35ZM243.726 32.448C240.438 32.448 238.062 34.512 238.062 37.512C238.062 40.512 240.438 42.552 243.726 42.552C247.014 42.552 249.366 40.512 249.366 37.512C249.366 34.512 247.014 32.448 243.726 32.448ZM243.726 34.104C245.886 34.104 247.446 35.496 247.446 37.512C247.446 39.528 245.886 40.896 243.726 40.896C241.566 40.896 240.006 39.528 240.006 37.512C240.006 35.496 241.566 34.104 243.726 34.104ZM262.924 32.832C259.756 32.832 257.524 35.784 257.524 40.392C257.524 45.024 259.756 47.976 262.924 47.976C266.068 47.976 268.324 45.024 268.324 40.392C268.324 35.784 266.068 32.832 262.924 32.832ZM262.924 34.632C265.012 34.632 266.428 36.888 266.428 40.392C266.428 43.92 265.012 46.224 262.924 46.224C260.836 46.224 259.42 43.92 259.42 40.392C259.42 36.888 260.836 34.632 262.924 34.632ZM273.028 31.152V52.896H274.996V31.152H273.028ZM267.676 39.432V41.064H273.892V39.432H267.676ZM281.466 45.696H282.954L283.266 35.544L283.314 33.024H281.106L281.154 35.544L281.466 45.696ZM282.186 51.336C283.074 51.336 283.794 50.64 283.794 49.656C283.794 48.648 283.074 47.976 282.186 47.976C281.322 47.976 280.626 48.648 280.626 49.656C280.626 50.64 281.322 51.336 282.186 51.336Z" fill="#3A3A3A"/>
<path d="M142.162 30.888V53.184H145.354V30.888H142.162ZM128.05 45.408V48H130.018C134.074 48 137.338 47.88 140.938 47.232L140.626 44.664C137.098 45.264 133.954 45.408 130.018 45.408H128.05ZM128.026 32.784V35.328H135.25V38.856H128.05V46.368H131.29V41.376H138.514V32.784H128.026ZM150.896 43.896V53.136H154.112V43.896H150.896ZM158.84 43.896V53.136H162.056V43.896H158.84ZM146.408 43.512V46.056H166.544V43.512H146.408ZM148.712 31.728V41.424H164.168V31.728H161V34.152H151.88V31.728H148.712ZM151.88 36.672H161V38.856H151.88V36.672Z" fill="#FFB554"/>
</svg>
